<svg width="94" height="94" viewBox="0 0 94 94" fill="none" xmlns="http://www.w3.org/2000/svg">
<g filter="url(#filter0_d_40_47)">
<circle cx="47" cy="47" r="23" fill="#E7E7E7"/>
<path d="M54.355 63C59.1295 63 63 59.1295 63 54.355C63 49.5805 59.1295 45.71 54.355 45.71C49.5805 45.71 45.71 49.5805 45.71 54.355C45.71 59.1295 49.5805 63 54.355 63Z" fill="#97CF26"/>
<path d="M38.1046 58.3791C40.3271 58.3791 42.1287 56.5774 42.1287 54.355C42.1287 52.1326 40.3271 50.3309 38.1046 50.3309C35.8822 50.3309 34.0806 52.1326 34.0806 54.355C34.0806 56.5774 35.8822 58.3791 38.1046 58.3791Z" fill="#A169F7"/>
<path d="M54.3549 43.669C57.428 43.669 59.9193 41.1778 59.9193 38.1047C59.9193 35.0315 57.428 32.5403 54.3549 32.5403C51.2818 32.5403 48.7905 35.0315 48.7905 38.1047C48.7905 41.1778 51.2818 43.669 54.3549 43.669Z" fill="#FF6163"/>
<path d="M38.1047 45.2094C42.0285 45.2094 45.2094 42.0285 45.2094 38.1047C45.2094 34.1809 42.0285 31 38.1047 31C34.1809 31 31 34.1809 31 38.1047C31 42.0285 34.1809 45.2094 38.1047 45.2094Z" fill="#00AAFF"/>
</g>
<defs>
<filter id="filter0_d_40_47" x="0.799999" y="0.799999" width="92.4" height="92.4" filterUnits="userSpaceOnUse" color-interpolation-filters="sRGB">
<feFlood flood-opacity="0" result="BackgroundImageFix"/>
<feColorMatrix in="SourceAlpha" type="matrix" values="0 0 0 0 0 0 0 0 0 0 0 0 0 0 0 0 0 0 127 0" result="hardAlpha"/>
<feOffset/>
<feGaussianBlur stdDeviation="11.6"/>
<feComposite in2="hardAlpha" operator="out"/>
<feColorMatrix type="matrix" values="0 0 0 0 1 0 0 0 0 1 0 0 0 0 1 0 0 0 1 0"/>
<feBlend mode="normal" in2="BackgroundImageFix" result="effect1_dropShadow_40_47"/>
<feBlend mode="normal" in="SourceGraphic" in2="effect1_dropShadow_40_47" result="shape"/>
</filter>
</defs>
</svg>
