<svg width="78" height="78" viewBox="0 0 78 78" fill="none" xmlns="http://www.w3.org/2000/svg">
<g clip-path="url(#clip0_49_104)">
<g filter="url(#filter0_d_49_104)">
<path d="M16 39C16 51.7026 26.2974 62 39 62C51.7026 62 62 51.7026 62 39C62 26.2974 51.7026 16 39 16C26.2974 16 16 26.2974 16 39Z" fill="#0088CC"/>
<path d="M27.6436 38.5807C33.8177 35.8908 37.9347 34.1174 39.9946 33.2606C45.8761 30.8143 47.0982 30.3894 47.8948 30.3751C48.0699 30.3722 48.4616 30.4157 48.7155 30.6215C48.9297 30.7953 48.9886 31.0302 49.0169 31.1951C49.0451 31.3598 49.0802 31.7354 49.0523 32.0288C48.7336 35.3776 47.3545 43.5044 46.6528 47.2551C46.356 48.8423 45.7713 49.3744 45.2054 49.4265C43.9756 49.5396 43.0417 48.6137 41.8504 47.8329C39.9864 46.611 38.9334 45.8503 37.1241 44.658C35.0331 43.28 36.3886 42.5227 37.5803 41.285C37.8921 40.9612 43.3111 36.0323 43.4159 35.5851C43.4291 35.5291 43.4412 35.3207 43.3174 35.2106C43.1935 35.1006 43.0108 35.1383 42.8788 35.1682C42.6919 35.2106 39.7141 37.1788 33.9456 41.0727C33.1004 41.6532 32.3347 41.9359 31.6489 41.9211C30.8926 41.9048 29.4381 41.4935 28.3567 41.142C27.0304 40.7109 25.9763 40.4829 26.0681 39.7508C26.1159 39.3694 26.6411 38.9793 27.6436 38.5807Z" fill="white"/>
</g>
</g>
<defs>
<filter id="filter0_d_49_104" x="0.4" y="0.4" width="77.2" height="77.2" filterUnits="userSpaceOnUse" color-interpolation-filters="sRGB">
<feFlood flood-opacity="0" result="BackgroundImageFix"/>
<feColorMatrix in="SourceAlpha" type="matrix" values="0 0 0 0 0 0 0 0 0 0 0 0 0 0 0 0 0 0 127 0" result="hardAlpha"/>
<feOffset/>
<feGaussianBlur stdDeviation="7.8"/>
<feComposite in2="hardAlpha" operator="out"/>
<feColorMatrix type="matrix" values="0 0 0 0 0 0 0 0 0 0.498333 0 0 0 0 0.958333 0 0 0 0.79 0"/>
<feBlend mode="normal" in2="BackgroundImageFix" result="effect1_dropShadow_49_104"/>
<feBlend mode="normal" in="SourceGraphic" in2="effect1_dropShadow_49_104" result="shape"/>
</filter>
<clipPath id="clip0_49_104">
<rect width="78" height="78" fill="white"/>
</clipPath>
</defs>
</svg>
