<svg width="74" height="74" viewBox="0 0 74 74" fill="none" xmlns="http://www.w3.org/2000/svg">
<g filter="url(#filter0_d_40_36)">
<path d="M60 37C60 24.2975 49.7025 14 37 14C24.2975 14 14 24.2975 14 37C14 49.7025 24.2975 60 37 60C49.7025 60 60 49.7025 60 37Z" fill="#2787F5"/>
<path fill-rule="evenodd" clip-rule="evenodd" d="M50.4222 30.3768C50.6166 29.7687 50.4223 29.3218 49.497 29.3218H46.4377C45.6598 29.3218 45.3012 29.7078 45.1067 30.1335C45.1067 30.1335 43.5509 33.6908 41.3469 36.0015C40.6338 36.6704 40.3097 36.8832 39.9208 36.8832C39.7263 36.8832 39.4448 36.6704 39.4448 36.0623V30.3768C39.4448 29.647 39.2191 29.3218 38.5708 29.3218H33.7632C33.2771 29.3218 32.9847 29.6605 32.9847 29.9815C32.9847 30.6733 34.0867 30.8328 34.2003 32.7787V37.0049C34.2003 37.9315 34.0219 38.0995 33.6329 38.0995C32.5958 38.0995 30.0729 34.5262 28.5767 30.4375C28.2834 29.6428 27.9893 29.3218 27.2074 29.3218H24.1481C23.274 29.3218 23.0991 29.7078 23.0991 30.1335C23.0991 30.8936 24.1363 34.6637 27.9285 39.65C30.4566 43.0553 34.0184 44.9011 37.2596 44.9011C39.2043 44.9011 39.4448 44.4912 39.4448 43.785V41.2114C39.4448 40.3914 39.6291 40.2277 40.2449 40.2277C40.6986 40.2277 41.4766 40.4406 43.2916 42.0824C45.366 44.0282 45.708 44.9011 46.8747 44.9011H49.9341C50.8082 44.9011 51.2452 44.4912 50.9931 43.6821C50.7172 42.8758 49.7268 41.7058 48.4127 40.3189C47.6996 39.5284 46.63 38.6771 46.3059 38.2514C45.8521 37.7042 45.9818 37.4609 46.3059 36.9745C46.3059 36.9745 50.0333 32.049 50.4222 30.3768Z" fill="white"/>
</g>
<defs>
<filter id="filter0_d_40_36" x="0.7" y="0.7" width="72.6" height="72.6" filterUnits="userSpaceOnUse" color-interpolation-filters="sRGB">
<feFlood flood-opacity="0" result="BackgroundImageFix"/>
<feColorMatrix in="SourceAlpha" type="matrix" values="0 0 0 0 0 0 0 0 0 0 0 0 0 0 0 0 0 0 127 0" result="hardAlpha"/>
<feOffset/>
<feGaussianBlur stdDeviation="6.65"/>
<feComposite in2="hardAlpha" operator="out"/>
<feColorMatrix type="matrix" values="0 0 0 0 0.152941 0 0 0 0 0.529412 0 0 0 0 0.960784 0 0 0 1 0"/>
<feBlend mode="normal" in2="BackgroundImageFix" result="effect1_dropShadow_40_36"/>
<feBlend mode="normal" in="SourceGraphic" in2="effect1_dropShadow_40_36" result="shape"/>
</filter>
</defs>
</svg>
