<svg width="66" height="66" viewBox="0 0 66 66" fill="none" xmlns="http://www.w3.org/2000/svg">
<g filter="url(#filter0_d_40_32)">
<path d="M33 56C45.7025 56 56 45.7025 56 33C56 20.2975 45.7025 10 33 10C20.2975 10 10 20.2975 10 33C10 45.7025 20.2975 56 33 56Z" fill="#E4405F"/>
<path d="M32.9999 21.5C29.8778 21.5 29.487 21.5135 28.2606 21.5674C27.0343 21.6258 26.2032 21.8189 25.471 22.102C24.7163 22.3939 24.0739 22.7893 23.4315 23.4271C22.7892 24.065 22.3983 24.7074 22.1063 25.4666C21.8233 26.1988 21.6302 27.0344 21.5718 28.2563C21.5134 29.4826 21.5044 29.8734 21.5044 32.9955C21.5044 36.1176 21.5179 36.5084 21.5718 37.7348C21.6302 38.9566 21.8233 39.7922 22.1063 40.5244C22.3983 41.2791 22.7937 41.9215 23.4315 42.5639C24.0694 43.2018 24.7118 43.5971 25.471 43.8891C26.2032 44.1721 27.0388 44.3652 28.2606 44.4236C29.487 44.482 29.8778 44.491 32.9999 44.491C36.122 44.491 36.5128 44.4775 37.7392 44.4236C38.961 44.3652 39.7966 44.1721 40.5288 43.8891C41.2835 43.5971 41.9259 43.2018 42.5683 42.5639C43.2062 41.926 43.6015 41.2836 43.8935 40.5244C44.1765 39.7922 44.3696 38.9566 44.428 37.7348C44.4864 36.5084 44.4954 36.1176 44.4954 32.9955C44.4954 29.8734 44.4819 29.4826 44.428 28.2563C44.3696 27.0344 44.1765 26.1988 43.8935 25.4666C43.6015 24.7119 43.2062 24.0695 42.5683 23.4271C41.9304 22.7893 41.288 22.3939 40.5288 22.102C39.7966 21.8189 38.961 21.6258 37.7392 21.5674C36.5128 21.5135 36.122 21.5 32.9999 21.5ZM32.9999 23.5709C36.0681 23.5709 36.4364 23.5844 37.6493 23.6383C38.7724 23.6922 39.3788 23.8764 39.7831 24.0381C40.3222 24.2447 40.704 24.4963 41.1083 24.8961C41.5081 25.3004 41.7597 25.6822 41.9663 26.2213C42.1235 26.6256 42.3122 27.232 42.3616 28.3551C42.4155 29.568 42.429 29.9318 42.429 33.0045C42.429 36.0771 42.4155 36.441 42.3571 37.6539C42.2987 38.777 42.1101 39.3834 41.9528 39.7877C41.7372 40.3268 41.4946 40.7086 41.0903 41.1129C40.6905 41.5127 40.2997 41.7643 39.7696 41.9709C39.3653 42.1281 38.7499 42.3168 37.6269 42.3662C36.405 42.4201 36.0456 42.4336 32.9685 42.4336C29.8913 42.4336 29.5319 42.4201 28.3101 42.3617C27.187 42.3033 26.5716 42.1147 26.1673 41.9574C25.6237 41.7418 25.2464 41.4992 24.8466 41.0949C24.4423 40.6951 24.1862 40.3043 23.9841 39.7742C23.8269 39.3699 23.6382 38.7545 23.5798 37.6314C23.5349 36.423 23.5214 36.0502 23.5214 32.991C23.5214 29.9273 23.5349 29.5545 23.5798 28.3326C23.6382 27.2096 23.8224 26.5941 23.9841 26.1898C24.1862 25.6418 24.4423 25.2689 24.8466 24.8646C25.2464 24.4648 25.6237 24.2043 26.1673 24.0021C26.5716 23.8449 27.1735 23.6563 28.2966 23.5979C29.5185 23.5529 29.8778 23.5395 32.955 23.5395L32.9999 23.5709ZM32.9999 27.0928C29.7386 27.0928 27.0927 29.7387 27.0927 33C27.0927 36.2613 29.7386 38.9072 32.9999 38.9072C36.2612 38.9072 38.9071 36.2613 38.9071 33C38.9071 29.7387 36.2612 27.0928 32.9999 27.0928ZM32.9999 36.8318C30.8841 36.8318 29.1681 35.1158 29.1681 33C29.1681 30.8842 30.8841 29.1682 32.9999 29.1682C35.1157 29.1682 36.8317 30.8842 36.8317 33C36.8317 35.1158 35.1157 36.8318 32.9999 36.8318ZM40.5198 26.8637C40.5198 27.6273 39.8999 28.2428 39.1407 28.2428C38.3771 28.2428 37.7616 27.6229 37.7616 26.8637C37.7616 26.1045 38.3815 25.4846 39.1407 25.4846C39.8999 25.4801 40.5198 26.1 40.5198 26.8637Z" fill="white"/>
</g>
<defs>
<filter id="filter0_d_40_32" x="0.6" y="0.6" width="64.8" height="64.8" filterUnits="userSpaceOnUse" color-interpolation-filters="sRGB">
<feFlood flood-opacity="0" result="BackgroundImageFix"/>
<feColorMatrix in="SourceAlpha" type="matrix" values="0 0 0 0 0 0 0 0 0 0 0 0 0 0 0 0 0 0 127 0" result="hardAlpha"/>
<feOffset/>
<feGaussianBlur stdDeviation="4.7"/>
<feComposite in2="hardAlpha" operator="out"/>
<feColorMatrix type="matrix" values="0 0 0 0 0.894118 0 0 0 0 0.25098 0 0 0 0 0.372549 0 0 0 1 0"/>
<feBlend mode="normal" in2="BackgroundImageFix" result="effect1_dropShadow_40_32"/>
<feBlend mode="normal" in="SourceGraphic" in2="effect1_dropShadow_40_32" result="shape"/>
</filter>
</defs>
</svg>
